<svg xmlns="http://www.w3.org/2000/svg" viewBox="0 0 1080 1080"><defs><style>.cls-1{fill:#ff5959;}.cls-2{fill:#fff;}</style></defs><g id="_1" data-name="1"><rect class="cls-1" x="91.15" y="90.57" width="897.7" height="898.87" rx="81.62"/><path class="cls-2" d="M223.58,278.37h54V456.09h-54Zm136,0h54V633.81h-54Zm135.5,0h54V456.09h-54Z"/><path class="cls-2" d="M608.1,277.9h54V633.34h-54ZM727.2,627.51A86.34,86.34,0,0,1,695.85,596a87.41,87.41,0,0,1,0-86.92,86.49,86.49,0,0,1,31.35-31.56,85.75,85.75,0,0,1,86.31,0A86.46,86.46,0,0,1,844.85,509a87.41,87.41,0,0,1,0,86.92,86.31,86.31,0,0,1-31.34,31.56,85.69,85.69,0,0,1-86.31,0Z"/><path class="cls-2" d="M245.52,694.59H228V683.84H277.3l-3.39,10.75H258.6v74.79H245.52Z"/><path class="cls-2" d="M289.92,683.84h12.39v85.54H289.92Zm3.86,40A34.55,34.55,0,0,1,304,712.06a24.14,24.14,0,0,1,36.46,8.3,30.7,30.7,0,0,1,3.22,14.08v34.94H331.29V733.85a15.94,15.94,0,0,0-2-8.12,13.25,13.25,0,0,0-5.25-5.2,15.12,15.12,0,0,0-7.25-1.75,15.4,15.4,0,0,0-7.3,1.75,12.78,12.78,0,0,0-5.26,5.2,16.34,16.34,0,0,0-1.93,8.12v35.53H289.92V738.65A30.92,30.92,0,0,1,293.78,723.86Z"/><path class="cls-2" d="M358.05,692.78a7.5,7.5,0,0,1-1.28-9.29,7.41,7.41,0,0,1,2.86-2.75,8.27,8.27,0,0,1,4-1,8.07,8.07,0,0,1,3.92,1,7.48,7.48,0,0,1,2.86,2.75,7.61,7.61,0,0,1-1.23,9.29,7.55,7.55,0,0,1-5.55,2.28A7.75,7.75,0,0,1,358.05,692.78Zm-.7,15.48h12.39l.11,61.12H357.58Z"/><path class="cls-2" d="M399.13,765.64A27.91,27.91,0,0,1,387.68,755a30.43,30.43,0,0,1-4.15-16,33,33,0,0,1,4.15-16.71A29.64,29.64,0,0,1,399.13,711a36.42,36.42,0,0,1,33.42-.06,28.39,28.39,0,0,1,11.34,11.34,34,34,0,0,1,4,16.65v30.5h-32A36.33,36.33,0,0,1,399.13,765.64Zm37.1-7V738.88a22.31,22.31,0,0,0-2.57-10.81,17.93,17.93,0,0,0-7.19-7.3,23.16,23.16,0,0,0-21.21,0,18.25,18.25,0,0,0-7.3,7.3,21.9,21.9,0,0,0-2.63,10.81,20.5,20.5,0,0,0,2.57,10.34,17.48,17.48,0,0,0,7.25,6.95,22.46,22.46,0,0,0,10.63,2.46Z"/><path class="cls-2" d="M473.28,766.63a29.52,29.52,0,0,1-11.46-11.39,34.66,34.66,0,0,1,.06-32.78A29.92,29.92,0,0,1,473.33,711,33.09,33.09,0,0,1,490,706.86a28.77,28.77,0,0,1,16.24,4.56,30,30,0,0,1,10.52,11.86,35,35,0,0,1,.11,30.79,29.66,29.66,0,0,1-10.45,12,29,29,0,0,1-16.54,4.67A33.11,33.11,0,0,1,473.28,766.63Zm3.79,32.55a26.74,26.74,0,0,1-10.86-8.36,22.78,22.78,0,0,1-4.62-12.68h11.34a15.34,15.34,0,0,0,3.44,7.6,17.1,17.1,0,0,0,6.78,4.91,22.64,22.64,0,0,0,8.59,1.63,20.79,20.79,0,0,0,10.75-2.68,18.07,18.07,0,0,0,7-7.48,24.57,24.57,0,0,0,2.57-10.87l.12-19.28,1.17-12.86.93-30.85H524v62.52A32.82,32.82,0,0,1,520,787a27.81,27.81,0,0,1-11.34,11.1,34.8,34.8,0,0,1-16.82,4A36.83,36.83,0,0,1,477.07,799.18Zm24.78-42a19.85,19.85,0,0,0,7.59-7.54,21.23,21.23,0,0,0,2.75-10.75,21.74,21.74,0,0,0-2.75-11,19.14,19.14,0,0,0-7.59-7.42,24,24,0,0,0-21.85,0,18.7,18.7,0,0,0-7.54,7.42,22,22,0,0,0-2.69,11,21.23,21.23,0,0,0,2.75,10.75,20,20,0,0,0,7.53,7.54,21.49,21.49,0,0,0,10.87,2.74A21.82,21.82,0,0,0,501.85,757.17Z"/><path class="cls-2" d="M589.38,712a28.06,28.06,0,0,1,11.45,10.64,30.48,30.48,0,0,1,4.15,16,33.36,33.36,0,0,1-4.15,16.76,29.23,29.23,0,0,1-11.45,11.34,36.68,36.68,0,0,1-33.43,0,28.47,28.47,0,0,1-11.33-11.28,33.77,33.77,0,0,1-4-16.71v-30.5h32A36.33,36.33,0,0,1,589.38,712Zm-37.11,7.13v19.75a22,22,0,0,0,2.57,10.75,18.17,18.17,0,0,0,7.19,7.25,23.16,23.16,0,0,0,21.21,0,18.28,18.28,0,0,0,7.3-7.31,21.8,21.8,0,0,0,2.63-10.81,20.19,20.19,0,0,0-2.57-10.28,17.71,17.71,0,0,0-7.24-6.9,22.62,22.62,0,0,0-10.64-2.45Z"/><path class="cls-2" d="M649.26,683.84h13.21v74.79H690.4l4.32,10.75H649.26Z"/><path class="cls-2" d="M720.31,683.84V697H708.16v-13.2Zm-12.15,24.42h12.27v61.12H708.16Z"/><path class="cls-2" d="M740.06,769.38V708.26h25.6a28.4,28.4,0,0,1,14,3.39,24.07,24.07,0,0,1,9.52,9.41,27,27,0,0,1,3.39,13.5v34.82H780.26V734.32a15.09,15.09,0,0,0-2-7.94,14,14,0,0,0-5.38-5.2,16,16,0,0,0-7.3-1.93H752.33v50.13Z"/><path class="cls-2" d="M821.34,757.23a10.24,10.24,0,0,0,7.07,2.45q4.56,0,6.83-2a6.44,6.44,0,0,0,2.28-5,6,6,0,0,0-2.39-5.08,31.57,31.57,0,0,0-7.07-3.69l-1-.35a14.24,14.24,0,0,0-2.34-.93,45.77,45.77,0,0,1-9.93-5.26,17.16,17.16,0,0,1-5.26-5.9,17,17,0,0,1,1.11-16.13,18,18,0,0,1,7.36-6.19,24,24,0,0,1,10.58-2.28q9.11,0,14.54,4.85a19.2,19.2,0,0,1,6.26,12.91l-11.69,1.76a8.36,8.36,0,0,0-2.4-6.37,11.06,11.06,0,0,0-12.79-.47,6.14,6.14,0,0,0-2.46,5.08,6.4,6.4,0,0,0,1.17,3.92,9.35,9.35,0,0,0,3.28,2.68,36.32,36.32,0,0,0,5.6,2.28,5.12,5.12,0,0,1,.94.35,46.56,46.56,0,0,1,10.28,4.44,17.85,17.85,0,0,1,6.14,6.14,17.13,17.13,0,0,1,2.16,8.82A15.93,15.93,0,0,1,847,762a18,18,0,0,1-7.48,6.43,26.2,26.2,0,0,1-11.57,2.39,21.32,21.32,0,0,1-14.43-5.08,19.89,19.89,0,0,1-7-12.8L818.24,751A9.2,9.2,0,0,0,821.34,757.23Z"/></g></svg>