<?xml version="1.0" encoding="UTF-8"?>
<svg viewBox="0 0 1920 1080" xmlns="http://www.w3.org/2000/svg">
<g data-name="1">
<path class="cls-1" d="m255.73 423.32h29.2v94.77h-29.2zm73.53 0h29.2v189.54h-29.2zm73.26 0h29.21v94.77h-29.21z"/>
<path class="cls-1" d="m463.65 423.07h29.2v189.54h-29.2zm64.4 186.44a46.4 46.4 0 0 1-16.95-16.84 45 45 0 0 1-6.25-23.3 44.57 44.57 0 0 1 6.25-23 46.37 46.37 0 0 1 16.95-16.83 45.81 45.81 0 0 1 23.47-6.22 45.31 45.31 0 0 1 23.2 6.22 46.37 46.37 0 0 1 16.95 16.83 44.58 44.58 0 0 1 6.26 23 45 45 0 0 1-6.26 23.3 46.4 46.4 0 0 1-16.95 16.84 45.4 45.4 0 0 1-23.2 6.21 45.9 45.9 0 0 1-23.47-6.21z"/>
<path class="cls-1" d="m654.71 457.81h-29.29v-18h82.42l-5.67 18h-25.58v125h-21.88z"/>
<path class="cls-1" d="m728.93 439.84h20.7v143h-20.7zm6.44 66.9a57.79 57.79 0 0 1 17.09-19.74 40.25 40.25 0 0 1 22.54-8.1q13.1-0.58 23.05 5.38a39.75 39.75 0 0 1 15.33 16.6 51.5 51.5 0 0 1 5.37 23.53v58.4h-20.7v-59.37a26.77 26.77 0 0 0-3.32-13.58 22.17 22.17 0 0 0-8.79-8.69 25.27 25.27 0 0 0-12.11-2.93 25.84 25.84 0 0 0-12.21 2.93 21.32 21.32 0 0 0-8.79 8.69 27.47 27.47 0 0 0-3.22 13.58v59.37h-20.7v-51.37a51.68 51.68 0 0 1 6.46-24.7z"/>
<path class="cls-1" d="M842.8,454.78a12.53,12.53,0,0,1,2.63-20.11,13.74,13.74,0,0,1,6.74-1.66,13.36,13.36,0,0,1,6.54,1.66,12.63,12.63,0,0,1,2.74,20.11,12.64,12.64,0,0,1-9.28,3.81A12.92,12.92,0,0,1,842.8,454.78Zm-1.18,25.88h20.71l.19,102.15H842Z"/>
<path class="cls-1" d="m911.45 576.56a46.7 46.7 0 0 1-19.14-17.77q-6.93-11.52-6.93-26.76 0-15.82 6.93-27.93a49.58 49.58 0 0 1 19.14-19q12.21-6.82 28-6.83 15.62 0 27.83 6.74a47.42 47.42 0 0 1 18.97 18.99q6.75 12.21 6.75 27.83v51h-53.52q-15.82-0.02-28.03-6.27zm62-11.72v-33a37.17 37.17 0 0 0-4.3-18.06 30 30 0 0 0-12-12.21 38.68 38.68 0 0 0-35.45 0 30.57 30.57 0 0 0-12.2 12.21 36.57 36.57 0 0 0-4.4 18.06 34.15 34.15 0 0 0 4.3 17.29 29.31 29.31 0 0 0 12.11 11.62 37.68 37.68 0 0 0 17.77 4.1z"/>
<path class="cls-1" d="m1035.4 578.22a49.4 49.4 0 0 1-19.14-19 58 58 0 0 1 0.1-54.79 50.13 50.13 0 0 1 19.14-19.14 55.39 55.39 0 0 1 27.83-6.93q15.63 0 27.15 7.62a50 50 0 0 1 17.55 19.78 58.52 58.52 0 0 1 0.2 51.46 49.58 49.58 0 0 1-17.48 20.12q-11.62 7.81-27.64 7.81a55.56 55.56 0 0 1-27.71-6.93zm6.35 54.4a44.81 44.81 0 0 1-18.16-14 38.15 38.15 0 0 1-7.72-21.19h18.95a25.77 25.77 0 0 0 5.76 12.69 28.65 28.65 0 0 0 11.33 8.21 37.86 37.86 0 0 0 14.35 2.73 34.79 34.79 0 0 0 18-4.49 30.15 30.15 0 0 0 11.72-12.5 41 41 0 0 0 4.3-18.16l0.19-32.23 2-21.49 1.56-51.56h16.21v104.52a54.87 54.87 0 0 1-6.64 27.15 46.48 46.48 0 0 1-19 18.56q-12.3 6.63-28.12 6.64a61.4 61.4 0 0 1-24.73-4.88zm41.41-70.22a33.24 33.24 0 0 0 12.69-12.6 35.46 35.46 0 0 0 4.59-18 36.29 36.29 0 0 0-4.59-18.36 31.93 31.93 0 0 0-12.69-12.4 40.19 40.19 0 0 0-36.53 0 31.24 31.24 0 0 0-12.59 12.4 36.86 36.86 0 0 0-4.49 18.36 35.46 35.46 0 0 0 4.58 18 33.43 33.43 0 0 0 12.6 12.6 35.89 35.89 0 0 0 18.17 4.59 36.42 36.42 0 0 0 18.26-4.59z"/>
<path class="cls-1" d="m1229.4 486.91a46.78 46.78 0 0 1 19.14 17.78q6.93 11.52 6.93 26.75 0 15.82-6.93 28a48.84 48.84 0 0 1-19.14 18.95q-12.21 6.74-28 6.73-15.63 0-27.83-6.73a47.6 47.6 0 0 1-19-18.85q-6.73-12.11-6.74-27.93v-51h53.52q15.85 0.05 28.05 6.3zm-62 11.92v33a36.68 36.68 0 0 0 4.3 18 30.23 30.23 0 0 0 12 12.11 38.68 38.68 0 0 0 35.45 0 30.57 30.57 0 0 0 12.21-12.2 36.6 36.6 0 0 0 4.39-18.07 33.74 33.74 0 0 0-4.29-17.19 29.57 29.57 0 0 0-12.11-11.52 37.63 37.63 0 0 0-17.78-4.1z"/>
<path class="cls-1" d="m1329.5 439.84h22.07v125h46.68l7.23 18h-76z"/>
<path class="cls-1" d="M1448.26,439.84v22.07H1428V439.84ZM1428,480.66h20.5V582.81H1428Z"/>
<path class="cls-1" d="M1481.27,582.81V480.66H1524a47.44,47.44,0,0,1,23.34,5.67,40.19,40.19,0,0,1,15.92,15.72,45.26,45.26,0,0,1,5.66,22.56v58.2h-20.51V524.22a25.17,25.17,0,0,0-3.42-13.28,23.42,23.42,0,0,0-9-8.7,26.93,26.93,0,0,0-12.21-3.22h-22.07v83.79Z"/>
<path class="cls-1" d="M1617.1,562.5q4.59,4.1,11.82,4.1,7.62,0,11.43-3.42a10.75,10.75,0,0,0,3.8-8.3,10.06,10.06,0,0,0-4-8.5,53.05,53.05,0,0,0-11.82-6.15l-1.75-.58a25,25,0,0,0-3.91-1.57,76.46,76.46,0,0,1-16.6-8.79,28.66,28.66,0,0,1-8.79-9.86,28.43,28.43,0,0,1,1.85-26.95,30.26,30.26,0,0,1,12.31-10.35,40.17,40.17,0,0,1,17.67-3.81q15.24,0,24.32,8.1T1663.88,508l-19.53,2.93q0-6.84-4-10.65c-2.68-2.54-6.35-3.81-11-3.81a15.4,15.4,0,0,0-10.35,3,10.27,10.27,0,0,0-4.1,8.5,10.7,10.7,0,0,0,2,6.54,15.77,15.77,0,0,0,5.47,4.49,63.45,63.45,0,0,0,9.37,3.81,8,8,0,0,1,1.57.59,76.43,76.43,0,0,1,17.18,7.42,29.68,29.68,0,0,1,10.26,10.25,28.71,28.71,0,0,1,3.61,14.75,26.51,26.51,0,0,1-4.3,14.55,29.92,29.92,0,0,1-12.5,10.74,43.57,43.57,0,0,1-19.33,4q-14.27,0-24.12-8.49a33.26,33.26,0,0,1-11.62-21.39l19.53-3.12A15.3,15.3,0,0,0,1617.1,562.5Z"/>
<path class="cls-1" d="m1137.6 601.66h23.45v5.08h-17.19v11.77h13.1v4.76h-13.1v18.85h-6.24z"/>
<path class="cls-1" d="M1170.16,613.21V629.9a7.51,7.51,0,0,0,.91,3.81,6.15,6.15,0,0,0,2.49,2.44,7.33,7.33,0,0,0,3.45.83,7.19,7.19,0,0,0,3.43-.83,6.41,6.41,0,0,0,2.49-2.44,7.42,7.42,0,0,0,.93-3.81V613.21h5.86v16.58a13.49,13.49,0,0,1-1.6,6.55,12.12,12.12,0,0,1-4.51,4.7,13.44,13.44,0,0,1-13.23,0,12.19,12.19,0,0,1-4.48-4.7,13.49,13.49,0,0,1-1.6-6.55V613.21Z"/>
<path class="cls-1" d="M1198.26,642a2.91,2.91,0,0,1-.8-2.13V603.92a2.87,2.87,0,0,1,.8-2.12,2.8,2.8,0,0,1,2.07-.81h.06a2.78,2.78,0,0,1,2.1.81,2.9,2.9,0,0,1,.77,2.12v35.93a2.94,2.94,0,0,1-.77,2.13,2.81,2.81,0,0,1-2.1.8h-.06A2.84,2.84,0,0,1,1198.26,642Z"/>
<path class="cls-1" d="M1211.58,642a2.91,2.91,0,0,1-.8-2.13V603.92a2.87,2.87,0,0,1,.8-2.12,2.79,2.79,0,0,1,2.07-.81h.06a2.78,2.78,0,0,1,2.1.81,2.9,2.9,0,0,1,.77,2.12v35.93a2.94,2.94,0,0,1-.77,2.13,2.81,2.81,0,0,1-2.1.8h-.06A2.82,2.82,0,0,1,1211.58,642Z"/>
<path class="cls-1" d="M1228.33,641.84a11.59,11.59,0,0,1-3.21-2.05,8.93,8.93,0,0,1-1.79-2.15,3.1,3.1,0,0,1-.61-2.35,2.62,2.62,0,0,1,1.1-1.69,2.58,2.58,0,0,1,2-.38,3.94,3.94,0,0,1,2.13,1.27,6.78,6.78,0,0,0,2.13,1.9,6.14,6.14,0,0,0,2.73,1,4.93,4.93,0,0,0,3.24-.8,2.79,2.79,0,0,0,1.07-2.29,2.63,2.63,0,0,0-1-2.21,13.29,13.29,0,0,0-3-1.61l-.94-.33-.39-.11a23,23,0,0,1-5.17-2.62,8.53,8.53,0,0,1-2.67-3,8.07,8.07,0,0,1-.78-3.92,6.86,6.86,0,0,1,1.27-4,8.47,8.47,0,0,1,3.48-2.85,11.79,11.79,0,0,1,5-1,11.36,11.36,0,0,1,5.36,1.27,7.26,7.26,0,0,1,3.37,3.26,3.33,3.33,0,0,1,.25,1.88,2,2,0,0,1-1,1.54,3.15,3.15,0,0,1-2.13.47,3.18,3.18,0,0,1-2-1.13l-.67-.77a4.09,4.09,0,0,0-1.43-.94,5.26,5.26,0,0,0-1.94-.33,4,4,0,0,0-2.76.85,2.7,2.7,0,0,0-1.11,2.3,2.63,2.63,0,0,0,.64,1.74,5.62,5.62,0,0,0,1.71,1.32,18.75,18.75,0,0,0,2.85,1.19,26,26,0,0,1,4.84,2.24,8.52,8.52,0,0,1,2.92,2.93,8,8,0,0,1,1,4.17,7.64,7.64,0,0,1-1.22,4.18,8.34,8.34,0,0,1-3.51,3,12.1,12.1,0,0,1-5.44,1A11.12,11.12,0,0,1,1228.33,641.84Z"/>
<path class="cls-1" d="m1247.5 613.21h14.21v4.31h-14.21zm4.15-11.55h6v40.46h-6z"/>
<path class="cls-1" d="m1297.4 642.12h-4.09l-0.22-5.81a12.71 12.71 0 0 1-4.84 4.7 13.9 13.9 0 0 1-6.88 1.71 15.48 15.48 0 0 1-7.71-1.93 14 14 0 0 1-5.42-5.39 15.42 15.42 0 0 1-2-7.77 15.72 15.72 0 0 1 2-7.84 13.83 13.83 0 0 1 5.49-5.34 16.5 16.5 0 0 1 8-1.9 17 17 0 0 1 8 1.82 13.57 13.57 0 0 1 5.5 5.17 15.83 15.83 0 0 1 2.1 7.76zm-24.39-9.35a9.4 9.4 0 0 0 3.59 3.57 11 11 0 0 0 10.39 0 9.42 9.42 0 0 0 3.6-3.57 10.08 10.08 0 0 0 1.3-5.08 10.37 10.37 0 0 0-1.3-5.2 9.07 9.07 0 0 0-3.58-3.49 10.73 10.73 0 0 0-5.16-1.24 10.89 10.89 0 0 0-5.23 1.24 9 9 0 0 0-3.59 3.51 10.37 10.37 0 0 0-1.3 5.2 10.08 10.08 0 0 0 1.28 5.06z"/>
<path class="cls-1" d="M1311.12,640.87a14.08,14.08,0,0,1-5.52-5.33,15,15,0,0,1-2-7.74,15.59,15.59,0,0,1,2-7.9,14,14,0,0,1,5.5-5.42,17.21,17.21,0,0,1,15.5-.17,15.5,15.5,0,0,1,3.07,2.11,12,12,0,0,1,2.24,2.7,4.33,4.33,0,0,1,.69,2,2.08,2.08,0,0,1-.69,1.75,2.28,2.28,0,0,1-1.41.58,2.21,2.21,0,0,1-1.52-.36,27.53,27.53,0,0,0-2.38-2.16,17.35,17.35,0,0,0-1.77-1.32,10.89,10.89,0,0,0-2.76-1.25,9.46,9.46,0,0,0-3.1-.41,10.27,10.27,0,0,0-5,1.3,9,9,0,0,0-3.43,3.45,10.29,10.29,0,0,0-1.24,5.09,9.42,9.42,0,0,0,1.3,4.94,9,9,0,0,0,3.51,3.4,10,10,0,0,0,4.92,1.22,11.88,11.88,0,0,0,6.13-1.77,9.23,9.23,0,0,0,1.72-1.25,16.12,16.12,0,0,0,1.21-1.29l.39-.47a2.25,2.25,0,0,1,.39-.36,2,2,0,0,1,1.51-.67,2.51,2.51,0,0,1,1.53.5,2.24,2.24,0,0,1,.82,1.74,4.41,4.41,0,0,1-.6,2.35,10.64,10.64,0,0,1-1.55,2.13,12.31,12.31,0,0,1-3,2.35,14.56,14.56,0,0,1-4,1.66,18.86,18.86,0,0,1-4.59.55A16.26,16.26,0,0,1,1311.12,640.87Z"/>
<path class="cls-1" d="M1339.36,642a2.91,2.91,0,0,1-.8-2.13V603.92a2.87,2.87,0,0,1,.8-2.12,2.81,2.81,0,0,1,2.08-.81h0a2.75,2.75,0,0,1,2.1.81,2.9,2.9,0,0,1,.78,2.12v35.93a2.94,2.94,0,0,1-.78,2.13,2.78,2.78,0,0,1-2.1.8h0A2.84,2.84,0,0,1,1339.36,642Zm21.56-2.13a2.61,2.61,0,0,1-.86,2.1l.11-.11a2.66,2.66,0,0,1-2.1.94,3.17,3.17,0,0,1-2.15-1.11L1340.83,627l3.54-3.54,15.42,14.26A3.33,3.33,0,0,1,1360.92,639.85Zm-4.2-27.25a2.55,2.55,0,0,1,2.18.78l-.16-.12a2.69,2.69,0,0,1,1.07,2,3.08,3.08,0,0,1-1,2.21l-14.1,13.21-3.75-3.32,13.65-13.54A3.22,3.22,0,0,1,1356.72,612.6Z"/>
<path class="cls-1" d="m1379.1 619h17v4.31h-17zm15.92-17.3a22.66 22.66 0 0 1 10.83 2.54 18.49 18.49 0 0 1 7.41 7.1 20.23 20.23 0 0 1 2.65 10.37 20.63 20.63 0 0 1-2.68 10.47 19.22 19.22 0 0 1-7.43 7.32 21.75 21.75 0 0 1-10.78 2.66h-9.45v-40.5zm-0.22 34.82a15.5 15.5 0 0 0 7.9-2 13.9 13.9 0 0 0 5.31-5.42 15.51 15.51 0 0 0 1.88-7.57 15 15 0 0 0-1.92-7.53 13.33 13.33 0 0 0-5.31-5.19 16.19 16.19 0 0 0-7.9-1.88h-3v29.57z"/>
<path class="cls-1" d="M1423.32,619.87a14,14,0,0,1,5.44-5.39,16,16,0,0,1,7.91-1.93,16.28,16.28,0,0,1,8.18,2.07,13.64,13.64,0,0,1,5.58,6,17.57,17.57,0,0,1,1.55,9.17h-6v-1.88a16.32,16.32,0,0,0-.41-4,8,8,0,0,0-1.58-3,9,9,0,0,0-3.2-2.38,10.1,10.1,0,0,0-4.09-.82,9.45,9.45,0,0,0-4.2.91,9.14,9.14,0,0,0-3.15,2.46,7.43,7.43,0,0,0-1.52,2.84,13.09,13.09,0,0,0-.47,3.68,14.08,14.08,0,0,0,.47,4,8.06,8.06,0,0,0,1.57,2.9,9.19,9.19,0,0,0,3,2.29,11.06,11.06,0,0,0,4.42,1,10.9,10.9,0,0,0,4.15-.71,9.69,9.69,0,0,0,3.31-2l.39-.45,3.7,3.32-.11.17a12,12,0,0,1-4.47,3.28,16.68,16.68,0,0,1-7.08,1.36,16.14,16.14,0,0,1-7.93-1.94,13.87,13.87,0,0,1-5.47-5.38,16.48,16.48,0,0,1,0-15.59Zm28,5.5v4.42H1422v-4.42Z"/>
<path class="cls-1" d="M1456.73,614.37a2.64,2.64,0,0,1,1.66-1.6l-.17.05a2.77,2.77,0,0,1,3.87,1.88l9.07,23.77-4.65,1.88-9.61-23.55A3.3,3.3,0,0,1,1456.73,614.37Zm11.25,27.8a3.21,3.21,0,0,1-1.36-1.66l-.22-.5,3.1-2.92,1.49,1.6h-1.71l1.6-1.6L1474,640l-.22.56a3.51,3.51,0,0,1-1.41,1.6,3.85,3.85,0,0,1-2.12.61h-.12A3.85,3.85,0,0,1,1468,642.17Zm5.88-1.82-4.69-1.88,9.11-23.77a3.14,3.14,0,0,1,1.55-1.88,2.84,2.84,0,0,1,2.32,0l-.16-.05a2.64,2.64,0,0,1,1.66,1.6,3.23,3.23,0,0,1-.22,2.43Z"/>
<path class="cls-1" d="m1488.9 619.87a13.89 13.89 0 0 1 5.44-5.39 16 16 0 0 1 7.9-1.93 16.28 16.28 0 0 1 8.18 2.07 13.64 13.64 0 0 1 5.58 6 17.47 17.47 0 0 1 1.55 9.17h-24.48a8.12 8.12 0 0 0 1.88 4.7 9 9 0 0 0 3 2.29 11.1 11.1 0 0 0 8.92 0.17 8.87 8.87 0 0 0 3.57-2.52l4.09 3.1a14.83 14.83 0 0 1-5.25 3.84 17 17 0 0 1-7 1.41 16.14 16.14 0 0 1-7.93-1.94 13.81 13.81 0 0 1-5.47-5.38 16.41 16.41 0 0 1 0-15.59zm20.64 1a9.1 9.1 0 0 0-3.21-2.38 10 10 0 0 0-4.09-0.82 9.45 9.45 0 0 0-4.2 0.91 9.33 9.33 0 0 0-3.15 2.46 7.4 7.4 0 0 0-1.16 1.82 8.24 8.24 0 0 0-0.61 2.21h18.3a6.94 6.94 0 0 0-1.88-4.18z"/>
<path class="cls-1" d="m1525.5 601.66h5.86v40.46h-5.86z"/>
<path class="cls-1" d="m1546.4 640.82a14.38 14.38 0 0 1-5.5-5.39 15.12 15.12 0 0 1-2-7.74 15.34 15.34 0 0 1 2-7.82 14.11 14.11 0 0 1 5.5-5.39 17.19 17.19 0 0 1 15.83 0 14.05 14.05 0 0 1 5.53 5.39 15.34 15.34 0 0 1 2 7.82 15.12 15.12 0 0 1-2 7.74 14.33 14.33 0 0 1-5.53 5.39 16.18 16.18 0 0 1-8 2 15.94 15.94 0 0 1-7.83-2zm12.93-4.76a8.82 8.82 0 0 0 3.48-3.45 9.83 9.83 0 0 0 1.25-4.92 10.06 10.06 0 0 0-1.25-5 8.69 8.69 0 0 0-3.45-3.43 10.26 10.26 0 0 0-5-1.21 10.46 10.46 0 0 0-5.06 1.21 8.5 8.5 0 0 0-3.45 3.43 10.26 10.26 0 0 0-1.22 5 9.84 9.84 0 0 0 1.25 4.95 9 9 0 0 0 3.45 3.42 10.69 10.69 0 0 0 10 0z"/>
<path class="cls-1" d="m1577.5 619.68a14.13 14.13 0 0 1 5.53-5.26 16.67 16.67 0 0 1 8-1.87 16.43 16.43 0 0 1 8 1.93 14.11 14.11 0 0 1 5.53 5.36 16.36 16.36 0 0 1 0 15.64 14.1 14.1 0 0 1-5.5 5.36 16.39 16.39 0 0 1-8 1.94 14.12 14.12 0 0 1-5.69-1.16 9.76 9.76 0 0 1-4-2.93v18.24h-5.86v-29.57a14.67 14.67 0 0 1 1.99-7.68zm4.84 13.2a8.67 8.67 0 0 0 3.54 3.51 10.6 10.6 0 0 0 5.19 1.25 10.49 10.49 0 0 0 5.14-1.25 8.79 8.79 0 0 0 3.54-3.51 10.47 10.47 0 0 0 1.27-5.19 10.33 10.33 0 0 0-1.27-5.09 9.25 9.25 0 0 0-3.57-3.56 10.26 10.26 0 0 0-5.17-1.3 10.09 10.09 0 0 0-5.13 1.3 9.19 9.19 0 0 0-3.54 3.54 10.12 10.12 0 0 0-1.27 5.11 10.37 10.37 0 0 0 1.27 5.19z"/>
<path class="cls-1" d="m1613.2 619.87a14 14 0 0 1 5.44-5.39 16 16 0 0 1 7.91-1.93 16.28 16.28 0 0 1 8.18 2.07 13.64 13.64 0 0 1 5.58 6 17.47 17.47 0 0 1 1.55 9.17h-24.49a8.25 8.25 0 0 0 1.88 4.7 9.19 9.19 0 0 0 3 2.29 11.12 11.12 0 0 0 8.93 0.17 8.83 8.83 0 0 0 3.56-2.52l4.09 3.1a14.83 14.83 0 0 1-5.25 3.84 17 17 0 0 1-7 1.41 16.14 16.14 0 0 1-7.93-1.94 13.87 13.87 0 0 1-5.47-5.38 16.48 16.48 0 0 1 0-15.59zm20.64 1a9 9 0 0 0-3.2-2.38 10.1 10.1 0 0 0-4.09-0.82 9.45 9.45 0 0 0-4.2 0.91 9.14 9.14 0 0 0-3.15 2.46 7.12 7.12 0 0 0-1.16 1.82 7.89 7.89 0 0 0-0.61 2.21h18.29a6.88 6.88 0 0 0-1.88-4.18z"/>
<path class="cls-1" d="m1649.9 619.51a11.68 11.68 0 0 1 5-4.89 14 14 0 0 1 7.51-1.41v5.64a7.71 7.71 0 0 0-4.34 1 7.86 7.86 0 0 0-3 3.07 9.08 9.08 0 0 0-1.08 4.45v14.76h-5.8v-15.38a14.94 14.94 0 0 1 1.71-7.24z"/>
</g>
</svg>
